<svg width="512" height="512" viewBox="0 0 512 512" fill="none" xmlns="http://www.w3.org/2000/svg">
<g clip-path="url(#clip0_8_4)">
<path d="M347.848 240.25C311.286 240.25 281.714 269.943 281.714 306.476C281.714 312.591 286.616 317.5 292.723 317.5H318.438C355 317.5 384.571 287.807 384.571 251.274C384.571 245.159 379.67 240.25 373.562 240.25H347.848Z" fill="black"/>
<path d="M230.286 306.476C230.286 269.862 200.634 240.25 164.152 240.25H138.438C132.33 240.25 127.429 245.159 127.429 251.274C127.429 287.888 157 317.5 193.562 317.5H219.277C225.384 317.5 230.286 312.591 230.286 306.476Z" fill="black"/>
<path fill-rule="evenodd" clip-rule="evenodd" d="M256 512C397.385 512 512 397.385 512 256C512 114.615 397.385 0 256 0C114.615 0 0 114.615 0 256C0 397.385 114.615 512 256 512ZM76 240.25C76 140.71 156.598 60 256 60C355.402 60 436 140.71 436 240.25C436 349.124 316.429 439.571 279.545 464.919C272.634 469.666 264.357 472 256 472C247.643 472 239.366 469.666 232.455 464.919C195.571 439.571 76 349.124 76 240.25Z" fill="black"/>
</g>
<defs>
<clipPath id="clip0_8_4">
<rect width="512" height="512" fill="white"/>
</clipPath>
</defs>
</svg>
